<svg width="500" height="196" viewBox="0 0 500 196" fill="none" xmlns="http://www.w3.org/2000/svg">
<path d="M24.9291 66.9714C32.5006 54.1343 43.9085 38.0648 59.2058 18.7353C56.1143 26.5751 53.6489 34.7164 51.8446 43.0657L51.8431 43.0727L51.8416 43.0798C45.8947 71.3889 51.1438 92.898 68.4805 106.71L68.4903 106.718L68.5002 106.726C76.8499 113.243 88.1467 116.364 102.122 116.364C113.288 116.364 125.776 114.361 139.561 110.412L139.575 110.408L139.589 110.404L469.42 11.7554L133.139 171.463C102.952 185.708 77.8618 192.719 57.7882 192.719C35.2336 192.719 19.187 183.993 9.18937 166.631C2.94637 155.554 1.00178 141.319 3.65583 123.671C6.30599 106.048 13.3768 87.1769 24.9291 66.9714Z" stroke="white" stroke-width="5"/>
</svg>
