<svg width="19" height="15" viewBox="0 0 19 15" fill="none" xmlns="http://www.w3.org/2000/svg">
<path d="M15.1421 13.9564C14.7717 13.8478 14.4922 13.6196 14.3036 13.2717C14.1159 12.9234 14.0676 12.5617 14.1588 12.1866L15.447 6.88889L2.57951 14.3179C2.25253 14.5067 1.91125 14.549 1.55565 14.4448C1.20129 14.341 0.925221 14.1178 0.727446 13.7752C0.529671 13.4326 0.474176 13.0816 0.56096 12.7219C0.648979 12.3627 0.856477 12.0887 1.18345 11.8999L14.051 4.47085L8.77257 2.92404C8.40216 2.81549 8.12086 2.59478 7.92867 2.26189C7.73694 1.92982 7.68668 1.57625 7.77788 1.20119C7.86908 0.826126 8.07355 0.546871 8.3913 0.363421C8.70828 0.180415 9.05197 0.143185 9.42238 0.251733L17.8956 2.73476C18.0808 2.78903 18.2383 2.8727 18.3682 2.98577C18.4974 3.09929 18.6085 3.23664 18.7016 3.39785C18.7946 3.55905 18.858 3.72395 18.8918 3.89254C18.9247 4.06158 18.9184 4.23986 18.8728 4.42739L16.7752 13.0538C16.6916 13.3976 16.4913 13.661 16.1743 13.844C15.8566 14.0275 15.5125 14.0649 15.1421 13.9564Z" fill="black"/>
</svg>
