<svg width="11" height="8" viewBox="0 0 11 8" fill="none" xmlns="http://www.w3.org/2000/svg">
<path d="M4.52453 1.09342C4.64568 1.22033 4.70382 1.37368 4.69898 1.55348C4.69373 1.73328 4.63053 1.88663 4.50939 2.01354L2.79826 3.80621L9.55194 3.80621C9.72356 3.80621 9.86752 3.86713 9.98381 3.98897C10.0997 4.11038 10.1577 4.26098 10.1577 4.44078C10.1577 4.62058 10.0997 4.77139 9.98381 4.89323C9.86752 5.01464 9.72356 5.07535 9.55194 5.07535L2.79826 5.07535L4.52453 6.88388C4.64568 7.01079 4.70625 7.16161 4.70625 7.33633C4.70625 7.51062 4.64568 7.66123 4.52453 7.78814C4.40339 7.91506 4.25943 7.97852 4.09266 7.97852C3.92629 7.97852 3.78254 7.91506 3.66139 7.78814L0.890263 4.88498C0.829691 4.82152 0.786685 4.75278 0.761245 4.67874C0.736209 4.60471 0.723691 4.52539 0.723691 4.44078C0.723691 4.35617 0.736209 4.27685 0.761245 4.20281C0.786685 4.12878 0.829691 4.06004 0.890263 3.99658L3.67654 1.07755C3.78758 0.961213 3.92629 0.903043 4.09266 0.903043C4.25943 0.903043 4.40339 0.966501 4.52453 1.09342Z" fill="black"/>
</svg>
