<svg width="30" height="30" viewBox="0 0 30 30" fill="none" xmlns="http://www.w3.org/2000/svg">
<g clip-path="url(#clip0_1_92)">
<path d="M25.7938 0H3.92157C1.75575 0 0 1.75575 0 3.92157V25.7939C0 27.9597 1.75575 29.7155 3.92157 29.7155H25.7938C27.9597 29.7155 29.7154 27.9597 29.7154 25.7939V3.92157C29.7154 1.75575 27.9597 0 25.7938 0Z" fill="#232427"/>
<path fill-rule="evenodd" clip-rule="evenodd" d="M8.34568 20.0701C7.88398 19.786 7.60162 19.2799 7.60162 18.7363V15.7017C7.60162 15.5856 7.63254 15.4735 7.69024 15.3739C7.86955 15.0628 8.26735 14.9571 8.57652 15.1396L15.3823 19.1326C15.7801 19.3669 16.0254 19.7943 16.0254 20.2588V23.4036C16.0254 23.5467 15.9861 23.6898 15.912 23.8122C15.6873 24.1813 15.2091 24.2976 14.8422 24.0716L8.34568 20.0701ZM18.4903 14.3077C18.8881 14.5421 19.1334 14.9694 19.1334 15.4341V21.8146C19.1334 22.0033 19.0324 22.1776 18.8695 22.2688L17.3794 23.1132C17.3608 23.1235 17.3403 23.1318 17.3196 23.1381V19.5951C17.3196 19.1367 17.0806 18.7114 16.689 18.475L10.7118 14.8762V10.8769C10.7118 10.7607 10.7427 10.6487 10.8005 10.5491C10.9797 10.238 11.3776 10.1322 11.6867 10.3147L18.4903 14.3077ZM21.4686 9.59494C21.8685 9.82725 22.1139 10.2588 22.1139 10.7234V20.0431C22.1139 20.2341 22.0086 20.4103 21.8418 20.5017L20.4298 21.2691V14.7807C20.4298 14.3223 20.1909 13.8991 19.8012 13.6627L13.6922 9.97453V6.18065C13.6922 6.06451 13.7231 5.95249 13.7787 5.85293C13.958 5.54179 14.3558 5.43599 14.665 5.61646L21.4686 9.59494Z" fill="#FAFAFA"/>
</g>
<defs>
<clipPath id="clip0_1_92">
<rect width="30" height="30" fill="white"/>
</clipPath>
</defs>
</svg>
